<svg id="레이어_1" data-name="레이어 1" xmlns="http://www.w3.org/2000/svg" viewBox="0 0 20.43 22.01"><path d="M100.47,90.1a4.63,4.63,0,1,1-4.64,4.63,4.64,4.64,0,0,1,4.64-4.63m0-1.5a6.13,6.13,0,1,0,6.13,6.13,6.13,6.13,0,0,0-6.13-6.13Z" transform="translate(-90.25 -88.6)"/><path d="M106,102.93a2.4,2.4,0,0,1,1.44.52c1.47,1,1.81,3.61,1.74,4.66s-.38,1-.9,1H92.66c-.52,0-.84,0-.9-1s.27-3.68,1.74-4.66a2.41,2.41,0,0,1,1.44-.52,7.5,7.5,0,0,1,1.53.25,15.9,15.9,0,0,0,8,0,7.5,7.5,0,0,1,1.53-.25m0-1.5c-1.4,0-2.8.75-5.52.76s-4.13-.76-5.53-.76a3.9,3.9,0,0,0-2.28.77c-2.15,1.44-2.48,4.81-2.4,6a2.22,2.22,0,0,0,2.4,2.4h15.61a2.22,2.22,0,0,0,2.4-2.4c.08-1.2-.25-4.57-2.4-6a4,4,0,0,0-2.28-.77Z" transform="translate(-90.25 -88.6)"/></svg>